<svg width="26" height="26" viewBox="0 0 26 26" fill="none" xmlns="http://www.w3.org/2000/svg">
    <g id="Group">
        <g id="Group_2">
            <path id="Path" d="M17.0017 13.0002H22.0038" stroke="#6C7280" stroke-width="1.5"
                stroke-linecap="round" stroke-linejoin="round" />
            <path id="Path_2" d="M20.0029 15.0012L22.0038 13.0003L20.0029 10.9995" stroke="#6C7280"
                stroke-width="1.5" stroke-linecap="round" stroke-linejoin="round" />
            <path id="Path_3"
                d="M21.0034 18.0024V20.0032C21.0034 21.1087 20.108 22.0041 19.0025 22.0041H6.99754C5.89208 22.0041 4.9967 21.1087 4.9967 20.0032V5.99742C4.9967 4.89195 5.89208 3.99658 6.99754 3.99658H19.0025C20.108 3.99658 21.0034 4.89195 21.0034 5.99742V7.99825"
                stroke="#6C7280" stroke-width="1.5" stroke-linecap="round" stroke-linejoin="round" />
            <path id="Path_4" d="M9.99874 12V14.0008" stroke="#6C7280" stroke-width="1.5"
                stroke-linecap="round" stroke-linejoin="round" />
            <path id="Path_5"
                d="M4.9967 20.0002C4.9967 21.4879 6.56236 22.4553 7.89191 21.79L11.8936 19.7892C12.5719 19.449 13 18.7567 13 17.9984V3.99658"
                stroke="#6C7280" stroke-width="1.5" stroke-linecap="round" stroke-linejoin="round" />
        </g>
    </g>
</svg>