<svg xmlns="http://www.w3.org/2000/svg" width="20" height="20" viewBox="0 0 20 20" fill="none">
  <path
    d="M17.5 8.92685V15.8235C17.5 16.7493 16.7742 17.4993 15.8783 17.4993H4.12167C3.22583 17.4993 2.5 16.7493 2.5 15.8243V5.84102C2.5 4.91602 3.22583 4.16602 4.12167 4.16602H8.58083"
    stroke="#284AD7" stroke-width="1.4835" stroke-linecap="round" stroke-linejoin="round" />
  <path fill-rule="evenodd" clip-rule="evenodd"
    d="M15.0517 2.92031C15.6117 2.36031 16.52 2.35948 17.08 2.92031V2.92031C17.64 3.48031 17.64 4.38865 17.0792 4.94865L12.2675 9.75615C12.1117 9.91198 11.9 9.99948 11.6792 9.99948H10V8.32031C10 8.09948 10.0875 7.88781 10.2442 7.73115L15.0517 2.92031V2.92031Z"
    stroke="#284AD7" stroke-width="1.5" stroke-linecap="round" stroke-linejoin="round" />
  <path d="M6.66667 10.0007H5" stroke="#284AD7" stroke-width="1.5" stroke-linecap="round"
    stroke-linejoin="round" />
  <path d="M5 13.3327H15" stroke="#284AD7" stroke-width="1.5" stroke-linecap="round"
    stroke-linejoin="round" />
  <path d="M16.1917 5.83359L14.1667 3.80859" stroke="#284AD7" stroke-width="1.5"
    stroke-linecap="round" stroke-linejoin="round" />
</svg>